HIERARCHY
ROOT root
{
	OFFSET	0	13.1	24.9
	CHANNELS 6  Xposition Yposition Zposition Xrotation Yrotation Zrotation
	JOINT spine_1
	{
		OFFSET	0	9.99999	0
		CHANNELS 3  Xrotation Yrotation Zrotation
		JOINT spine_2
		{
			OFFSET	0	112	-10
			CHANNELS 3  Xrotation Yrotation Zrotation
			JOINT spine_3
			{
				OFFSET	0	206.5	19.3
				CHANNELS 3  Xrotation Yrotation Zrotation
				JOINT spine_4
				{
					OFFSET	0	110.4	14.6
					CHANNELS 3  Xrotation Yrotation Zrotation
					JOINT neck_1
					{
						OFFSET	0	71.8	-50.3
						CHANNELS 3  Xrotation Yrotation Zrotation
						JOINT neck_2
						{
							OFFSET	0	86.2	-25.8
							CHANNELS 3  Xrotation Yrotation Zrotation
							JOINT head_ee
							{
								OFFSET	0	179.8	-8.7
								CHANNELS 3  Xrotation Yrotation Zrotation
								End Site
								{
									OFFSET	1	0	0
								}
							}
						}
					}
					JOINT left_clavicle
					{
						OFFSET	-43.2	22.4	-70.8
						CHANNELS 3  Xrotation Yrotation Zrotation
						JOINT left_shoulder
						{
							OFFSET	-93.9	-5.79999	48.7
							CHANNELS 3  Xrotation Yrotation Zrotation
							JOINT left_elbow
							{
								OFFSET	-291.4	-30.8	15.2
								CHANNELS 3  Xrotation Yrotation Zrotation
								JOINT left_lowarm_twist
								{
									OFFSET	-110.7	-3.89999	13.6
									CHANNELS 3  Xrotation Yrotation Zrotation
									JOINT left_hand
									{
										OFFSET	-110.7	-3.89999	13.6
										CHANNELS 3  Xrotation Yrotation Zrotation
										JOINT left_ee
										{
											OFFSET	-80.8	-5.10001	12.1
											CHANNELS 3  Xrotation Yrotation Zrotation
											End Site
											{
												OFFSET	1	0	0
											}
										}
									}
								}
							}
						}
					}
					JOINT right_clavicle
					{
						OFFSET	43.2	22.4	-70.8
						CHANNELS 3  Xrotation Yrotation Zrotation
						JOINT right_shoulder
						{
							OFFSET	93.9	-5.79999	48.7
							CHANNELS 3  Xrotation Yrotation Zrotation
							JOINT right_elbow
							{
								OFFSET	291.4	-30.8	15.2
								CHANNELS 3  Xrotation Yrotation Zrotation
								JOINT right_lowarm_twist
								{
									OFFSET	110.7	-3.89999	13.6
									CHANNELS 3  Xrotation Yrotation Zrotation
									JOINT right_hand
									{
										OFFSET	110.7	-3.89999	13.6
										CHANNELS 3  Xrotation Yrotation Zrotation
										JOINT right_ee
										{
											OFFSET	80.8	-5.10001	12.1
											CHANNELS 3  Xrotation Yrotation Zrotation
											End Site
											{
												OFFSET	1	0	0
											}
										}
									}
								}
							}
						}
					}
				}
			}
		}
	}
	JOINT left_hip
	{
		OFFSET	-82.8	-127.5	0.300001
		CHANNELS 3  Xrotation Yrotation Zrotation
		JOINT left_knee
		{
			OFFSET	-28.2	-396.7	2.2
			CHANNELS 3  Xrotation Yrotation Zrotation
			JOINT left_ankle
			{
				OFFSET	-11.7	-411.3	35.4
				CHANNELS 3  Xrotation Yrotation Zrotation
				JOINT left_toes
				{
					OFFSET	0	-60	-88.6
					CHANNELS 3  Xrotation Yrotation Zrotation
					JOINT left_foot_ee
					{
						OFFSET	-22.5	-16.5	-42.2
						CHANNELS 3  Xrotation Yrotation Zrotation
						End Site
						{
							OFFSET	1	0	0
						}
					}
				}
			}
		}
	}
	JOINT right_hip
	{
		OFFSET	82.8	-127.5	0.300001
		CHANNELS 3  Xrotation Yrotation Zrotation
		JOINT right_knee
		{
			OFFSET	28.2	-396.7	2.2
			CHANNELS 3  Xrotation Yrotation Zrotation
			JOINT right_ankle
			{
				OFFSET	11.7	-411.3	35.4
				CHANNELS 3  Xrotation Yrotation Zrotation
				JOINT right_toes
				{
					OFFSET	0	-60	-88.6
					CHANNELS 3  Xrotation Yrotation Zrotation
					JOINT right_foot_ee
					{
						OFFSET	22.5	-16.5	-42.2
						CHANNELS 3  Xrotation Yrotation Zrotation
						End Site
						{
							OFFSET	1	0	0
						}
					}
				}
			}
		}
	}
}
MOTION
Frames: 13
Frame Time: 0.02
1372.05 701.618 -1475.22 9.87319317733 29.9626557556 -10.7570121609 -7.15626 0.412134 3.11842 -7.15087 0.212966 3.1383 -7.12662 -0.834776 3.03283 -7.13928 -0.345569 3.12649 6.34736 14.4744 0.427868 7.14557 24.2218 0.850194 -0.0 0.0 -0.0 1.96084 6.26014 4.28451 7.10989 -27.0548 57.0167 3.03566 -56.3647 1.62678 49.2308 -0.914295 -6.03131 -6.89555 -24.6151 -69.0797 -0.0 0.0 -0.0 11.7091 23.8233 -22.946 -29.0758 36.7926 -52.0952 0.166459 4.71399 -0.00685153 -84.8744 8.43622 -5.18765 -12.0464 -33.5155 63.6422 0.0 0.0 0.0 -31.6332 14.0872 12.4787 -9.55281 0.273903 1.43878 31.1973 9.1075 -4.02056 -32.2887 0.0 0.0 -0.0 0.0 -0.0 13.2289 29.7035 0.259228 4.87827 0.231402 0.712448 -13.7334 -7.82089 -2.0565 21.2583 -0.0 -0.0 0.0 0.0 0.0 
1363.68640937 690.453 -1504.00746909 10.9604202491 32.0944955073 -12.5960726559 -7.05141 0.454231 3.26675 -7.04551 0.245553 3.289 -7.01762 -0.847725 3.18745 -7.03164 -0.333973 3.28121 7.74388 14.8564 0.0253348 8.68505 24.9172 0.168051 -0.0 0.0 -0.0 1.73505 5.477 3.81211 6.18015 -27.7335 57.4703 2.57661 -51.9138 1.25446 48.9473 -0.894479 -6.00089 -6.96584 -23.9453 -70.0166 -0.0 0.0 -0.0 12.0086 24.4957 -23.563 -28.0751 36.9134 -52.4749 0.200104 5.66112 -0.00989374 -83.8723 8.31067 -5.21089 -12.0181 -33.286 63.998 0.0 0.0 0.0 -30.364 14.0635 11.7883 -13.4146 0.315958 2.02971 26.7062 10.7326 -3.53559 -31.9866 0.0 0.0 -0.0 0.0 -0.0 12.9271 29.602 -0.349037 3.34605 0.152182 0.490786 -14.0289 -7.0343 -2.102 22.4634 -0.0 -0.0 0.0 0.0 0.0 
1364.07285955 690.453 -1504.11694197 10.8705754733 31.3407024522 -12.4251821271 -7.05141 0.454231 3.26675 -7.04551 0.245553 3.289 -7.01762 -0.847725 3.18745 -7.03164 -0.333973 3.28121 7.74388 14.8564 0.0253348 8.68505 24.9172 0.168051 -0.0 0.0 -0.0 1.73505 5.477 3.81211 6.18015 -27.7335 57.4703 2.57661 -51.9138 1.25446 48.9473 -0.894479 -6.00089 -6.96584 -23.9453 -70.0166 -0.0 0.0 -0.0 12.0086 24.4957 -23.563 -28.0751 36.9134 -52.4749 0.200104 5.66112 -0.00989374 -83.8723 8.31067 -5.21089 -12.0181 -33.286 63.998 0.0 0.0 0.0 -30.364 14.0635 11.7883 -13.4146 0.315958 2.02971 26.7062 10.7326 -3.53559 -31.9866 0.0 0.0 -0.0 0.0 -0.0 12.9271 29.602 -0.349037 3.34605 0.152182 0.490786 -14.0289 -7.0343 -2.102 22.4634 -0.0 -0.0 0.0 0.0 0.0 
1364.38554946 690.453 -1504.20144618 10.8005444755 30.7326611511 -12.2893563156 -7.05141 0.454231 3.26675 -7.04551 0.245553 3.289 -7.01762 -0.847725 3.18745 -7.03164 -0.333973 3.28121 7.74388 14.8564 0.0253348 8.68505 24.9172 0.168051 -0.0 0.0 -0.0 1.73505 5.477 3.81211 6.18015 -27.7335 57.4703 2.57661 -51.9138 1.25446 48.9473 -0.894479 -6.00089 -6.96584 -23.9453 -70.0166 -0.0 0.0 -0.0 12.0086 24.4957 -23.563 -28.0751 36.9134 -52.4749 0.200104 5.66112 -0.00989374 -83.8723 8.31067 -5.21089 -12.0181 -33.286 63.998 0.0 0.0 0.0 -30.364 14.0635 11.7883 -13.4146 0.315958 2.02971 26.7062 10.7326 -3.53559 -31.9866 0.0 0.0 -0.0 0.0 -0.0 12.9271 29.602 -0.349037 3.34605 0.152182 0.490786 -14.0289 -7.0343 -2.102 22.4634 -0.0 -0.0 0.0 0.0 0.0 
1349.11191075 701.082 -1527.56884608 11.191223986 31.8872936657 -12.7914518372 -7.3 0.512124 3.31256 -7.29394 0.30042 3.33839 -7.26162 -0.825912 3.24863 -7.27622 -0.302788 3.33818 8.28736 15.0963 -0.179386 9.3066 25.3798 -0.163997 -0.0 0.0 -0.0 1.4735 5.86464 3.36955 4.4721 -27.9575 58.0614 2.28708 -48.5599 1.0318 49.0148 -0.899189 -6.00815 -7.08008 -23.3383 -71.7691 -0.0 0.0 -0.0 12.3325 24.8855 -24.2646 -27.1297 37.1239 -52.9943 0.231515 6.54258 -0.0132326 -83.1653 8.22184 -5.22595 -12.1009 -33.4764 64.6578 0.0 0.0 0.0 -29.7285 13.9995 10.724 -16.1626 0.321593 2.45126 22.0662 13.1247 -3.00095 -32.0011 0.0 0.0 -0.0 0.0 -0.0 12.8521 30.4372 -1.15277 -0.318377 -0.0129788 -0.0471343 -12.6195 -7.40999 -1.88782 24.0334 -0.0 -0.0 0.0 0.0 0.0 
1333.78412976 696.75 -1552.44642618 12.6137206949 32.896091645 -12.8140292948 -7.49478 0.520549 3.16209 -7.48928 0.318387 3.18877 -7.45762 -0.769801 3.11086 -7.47103 -0.269101 3.1933 10.2109 15.6042 -0.315629 11.3958 25.8901 -0.61309 -0.0 0.0 -0.0 1.20479 5.59383 2.85687 4.25567 -25.9776 58.4551 1.90567 -43.3459 0.757377 48.7613 -0.881567 -5.98089 -7.19874 -21.3976 -73.2615 -0.0 0.0 -0.0 12.3373 23.6303 -24.4036 -26.4215 37.4068 -51.8295 0.374557 10.5116 -0.0344553 -84.7464 8.42021 -5.19074 -11.6554 -31.5539 64.1007 0.0 0.0 0.0 -24.094 15.6049 9.69779 -27.0786 0.14483 4.11446 18.4952 12.9947 -2.55524 -31.2127 0.0 0.0 -0.0 0.0 -0.0 11.9191 30.4164 -2.946 -3.7337 -0.13562 -0.556857 -7.46578 -8.92041 -1.1089 24.4836 -0.0 -0.0 0.0 0.0 0.0 
1318.77765272 707.213 -1575.54896212 13.3233568346 33.0660803732 -13.3661945277 -7.80634 0.555927 3.09727 -7.80108 0.357812 3.12632 -7.76754 -0.728215 3.06137 -7.78054 -0.235839 3.13787 11.6 15.6904 -1.26785 12.9927 26.5581 -2.01921 -0.0 0.0 -0.0 1.45887 5.82093 3.33917 3.80123 -24.1434 60.0205 1.62577 -38.8435 0.57325 48.2036 -0.843227 -5.92065 -7.39117 -18.957 -76.1262 -0.0 0.0 -0.0 12.4369 23.1397 -24.6802 -25.4813 37.6525 -50.1667 0.375823 10.5463 -0.0346866 -84.8229 8.42978 -5.1889 -11.3407 -30.1696 63.5243 0.0 0.0 0.0 -20.4989 16.3153 7.83866 -35.351 -0.197794 5.33658 16.498 12.8627 -2.29785 -31.8863 0.0 0.0 -0.0 0.0 -0.0 10.7273 30.6423 -3.47304 -6.20449 -0.205281 -0.929615 -1.17566 -10.8946 -0.172673 24.5879 -0.0 -0.0 0.0 0.0 0.0 
1321.84924687 707.213 -1577.12057905 13.0729253046 31.3716812983 -12.8965316618 -7.80634 0.555927 3.09727 -7.80108 0.357812 3.12632 -7.76754 -0.728215 3.06137 -7.78054 -0.235839 3.13787 11.6 15.6904 -1.26785 12.9927 26.5581 -2.01921 -0.0 0.0 -0.0 1.45887 5.82093 3.33917 3.80123 -24.1434 60.0205 1.62577 -38.8435 0.57325 48.2036 -0.843227 -5.92065 -7.39117 -18.957 -76.1262 -0.0 0.0 -0.0 12.4369 23.1397 -24.6802 -25.4813 37.6525 -50.1667 0.375823 10.5463 -0.0346866 -84.8229 8.42978 -5.1889 -11.3407 -30.1696 63.5243 0.0 0.0 0.0 -20.4989 16.3153 7.83866 -35.351 -0.197794 5.33658 16.498 12.8627 -2.29785 -31.8863 0.0 0.0 -0.0 0.0 -0.0 10.7273 30.6423 -3.47304 -6.20449 -0.205281 -0.929615 -1.17566 -10.8946 -0.172673 24.5879 -0.0 -0.0 0.0 0.0 0.0 
1310.22554291 706.913 -1589.02596219 13.335651099 30.3059487686 -12.7443023259 -7.98362 0.589254 3.0856 -7.97841 0.391813 3.1168 -7.94277 -0.702327 3.06186 -7.95578 -0.210198 3.13427 12.5592 15.7653 -1.84423 14.0997 26.9706 -2.90718 -0.0 0.0 -0.0 1.76512 5.74263 3.8887 3.97058 -23.1512 62.1744 1.45038 -35.6942 0.467004 47.9587 -0.826578 -5.89409 -7.50257 -17.1408 -77.6686 -0.0 0.0 -0.0 12.5911 22.9275 -25.0556 -23.5024 38.4425 -48.8625 0.378834 10.6289 -0.0352399 -84.925 8.44254 -5.18642 -11.1299 -29.2052 63.1346 0.0 0.0 0.0 -17.4138 16.4879 5.9747 -40.3209 -0.487305 6.04314 14.777 12.8943 -2.07235 -32.5573 0.0 0.0 -0.0 0.0 -0.0 9.85414 30.4502 -3.60756 -7.41898 -0.233611 -1.11383 3.9676 -12.1655 0.576049 24.7334 -0.0 -0.0 0.0 0.0 0.0 
1285.49433533 717.222 -1611.79592994 13.6548525904 29.9655470104 -12.4499167859 -8.4838 0.619657 3.05701 -8.4787 0.423972 3.0902 -8.44092 -0.689431 3.04204 -8.45378 -0.200589 3.11267 11.5519 15.8972 -1.75205 13.0633 27.3495 -2.65857 -0.0 0.0 -0.0 1.74202 7.60705 3.99809 2.55266 -21.9751 64.547 1.31294 -33.038 0.3894 48.013 -0.830263 -5.89999 -7.48411 -16.4551 -76.69 -0.0 0.0 -0.0 12.701 22.7919 -25.3224 -21.7873 38.3714 -47.152 0.409804 11.4756 -0.041177 -84.9982 8.4517 -5.18463 -11.1422 -29.0751 63.7056 0.0 0.0 0.0 -13.8127 16.6086 3.87666 -43.5602 -0.708659 6.48934 11.3549 12.7506 -1.6123 -33.7297 0.0 0.0 -0.0 0.0 -0.0 7.06307 30.5645 -2.42128 -12.5405 -0.309928 -1.89573 11.6797 -12.7554 1.65653 26.2586 -0.0 -0.0 0.0 0.0 0.0 
1264.24674232 719.845 -1636.3128045 15.3343966979 27.147884777 -14.0408739307 -8.72462 0.397308 3.26713 -8.71871 0.188722 3.28576 -8.69209 -0.992625 3.13807 -8.7055 -0.484846 3.2553 10.6243 16.2158 -1.59945 12.1311 27.9616 -2.34958 -0.0 0.0 -0.0 2.05927 8.6163 4.6355 1.57909 -20.2419 67.5886 1.16864 -30.066 0.313869 52.595 -1.16078 -6.38457 -7.562 -12.6738 -75.3701 -0.0 0.0 -0.0 12.4454 21.0684 -24.8793 -22.1721 38.8103 -45.9939 0.425305 11.8975 -0.0443169 -85.2203 8.47945 -5.17912 -11.5407 -30.3082 66.4214 0.0 0.0 0.0 -11.9347 18.7248 1.57547 -48.3193 -1.07897 7.12095 7.08185 12.9036 -1.01998 -35.0067 0.0 0.0 -0.0 0.0 -0.0 4.41802 31.3203 -2.45338 -18.321 -0.311842 -2.78226 17.3277 -10.274 2.39723 27.171 -0.0 -0.0 0.0 0.0 0.0 
1246.04165977 724.309 -1654.12657183 16.3326555647 25.9487778342 -14.1979070516 -8.94076 0.466894 3.37215 -8.93447 0.251496 3.39499 -8.90205 -0.984757 3.2589 -8.91658 -0.458026 3.37336 10.1825 16.3688 -1.70633 11.7157 28.42 -2.42915 -0.0 0.0 -0.0 2.19412 8.85524 4.88889 0.767195 -18.9835 69.2859 1.08422 -28.2391 0.272739 54.4661 -1.30677 -6.57468 -7.61261 -11.3419 -75.2734 -0.0 0.0 -0.0 12.298 20.6441 -24.572 -21.8985 38.9929 -45.9956 0.466417 13.01 -0.0531831 -85.0891 8.46306 -5.18238 -11.695 -30.8048 67.4623 0.0 0.0 0.0 -9.40773 19.5189 1.24887 -49.4149 -1.17159 7.26192 5.51706 13.4227 -0.798942 -35.7736 0.0 0.0 -0.0 0.0 -0.0 2.2779 32.3341 -2.17525 -20.3997 -0.290673 -3.10049 18.3482 -9.14036 2.52524 27.3275 -0.0 -0.0 0.0 0.0 0.0 
1249.97490873 738.933 -1670.71653908 15.4782926711 24.5210522621 -12.1680949895 -9.03092 0.625345 3.44142 -9.02442 0.405226 3.47419 -8.98049 -0.874183 3.38684 -8.99634 -0.328666 3.48225 8.51808 16.0423 -2.84887 10.0849 29.2938 -3.55802 -0.0 0.0 -0.0 3.11219 9.23177 6.51812 0.223408 -17.9577 67.9456 0.734599 -19.9964 0.129508 56.9021 -1.50602 -6.81491 -7.37879 -12.7144 -71.478 -0.0 0.0 -0.0 10.9 18.1623 -21.5487 -13.6108 44.6097 -47.267 0.571634 15.8107 -0.0793761 -84.8894 8.4381 -5.18729 -11.4612 -29.6745 67.2332 0.0 0.0 0.0 -7.1681 19.2495 0.973721 -45.2085 -0.830927 6.71149 3.03157 14.9522 -0.443246 -37.9718 0.0 0.0 -0.0 0.0 -0.0 0.561737 32.7305 -3.54702 -15.3641 -0.32204 -2.32875 15.227 -7.34842 2.12237 24.7826 -0.0 -0.0 0.0 0.0 0.0 
